<mxfile host="app.diagrams.net" modified="2022-11-12T20:01:34.315Z" agent="5.0 (Windows NT 10.0; Win64; x64) AppleWebKit/537.36 (KHTML, like Gecko) Chrome/106.0.0.0 Safari/537.36 OPR/92.0.0.0" etag="K25ocFeclSYIIpBIHKBC" version="20.5.3" type="github">
  <diagram id="013ShaWi0nKcHKu73hQe" name="Page-1">
    <mxGraphModel dx="1622" dy="829" grid="1" gridSize="10" guides="1" tooltips="1" connect="1" arrows="1" fold="1" page="1" pageScale="1" pageWidth="850" pageHeight="1100" math="0" shadow="0">
      <root>
        <mxCell id="0" />
        <mxCell id="1" parent="0" />
        <mxCell id="z0qUzcLH7huREnHgUQ8k-1" value="START" style="ellipse;whiteSpace=wrap;html=1;" parent="1" vertex="1">
          <mxGeometry x="355" y="20" width="120" height="80" as="geometry" />
        </mxCell>
        <mxCell id="z0qUzcLH7huREnHgUQ8k-2" value="nalozi.status_naloga:&#39;CEKA KNIZENJE&#39; -&amp;gt; &#39;SALJE SE&#39;" style="rounded=0;whiteSpace=wrap;html=1;" parent="1" vertex="1">
          <mxGeometry x="310" y="160" width="210" height="60" as="geometry" />
        </mxCell>
        <mxCell id="z0qUzcLH7huREnHgUQ8k-3" value="" style="endArrow=classic;html=1;rounded=0;exitX=0.5;exitY=1;exitDx=0;exitDy=0;entryX=0.5;entryY=0;entryDx=0;entryDy=0;" parent="1" source="z0qUzcLH7huREnHgUQ8k-1" target="z0qUzcLH7huREnHgUQ8k-2" edge="1">
          <mxGeometry width="50" height="50" relative="1" as="geometry">
            <mxPoint x="560" y="80" as="sourcePoint" />
            <mxPoint x="610" y="30" as="targetPoint" />
          </mxGeometry>
        </mxCell>
        <mxCell id="z0qUzcLH7huREnHgUQ8k-4" value="upit=q_nalozi(&#39;SALJE SE&#39;)" style="rounded=0;whiteSpace=wrap;html=1;" parent="1" vertex="1">
          <mxGeometry x="310" y="240" width="210" height="60" as="geometry" />
        </mxCell>
        <mxCell id="z0qUzcLH7huREnHgUQ8k-5" value="json=f(nalozi.tip_naloga)" style="rhombus;whiteSpace=wrap;html=1;" parent="1" vertex="1">
          <mxGeometry x="295" y="320" width="240" height="80" as="geometry" />
        </mxCell>
        <mxCell id="z0qUzcLH7huREnHgUQ8k-6" value="API" style="rounded=0;whiteSpace=wrap;html=1;" parent="1" vertex="1">
          <mxGeometry x="355" y="420" width="120" height="60" as="geometry" />
        </mxCell>
        <mxCell id="z0qUzcLH7huREnHgUQ8k-7" value="uspesno" style="rhombus;whiteSpace=wrap;html=1;" parent="1" vertex="1">
          <mxGeometry x="240" y="510" width="350" height="80" as="geometry" />
        </mxCell>
        <mxCell id="z0qUzcLH7huREnHgUQ8k-8" value="nalozi.status_naloga: &#39;SALJE SE&#39; -&amp;gt; &#39;ODBIJENA&#39;,&lt;br&gt;nalozi.error = api(eror)" style="rounded=0;whiteSpace=wrap;html=1;" parent="1" vertex="1">
          <mxGeometry x="120" y="600" width="150" height="60" as="geometry" />
        </mxCell>
        <mxCell id="z0qUzcLH7huREnHgUQ8k-9" value="sif_heof_id=sif_heof(heof)" style="rounded=0;whiteSpace=wrap;html=1;" parent="1" vertex="1">
          <mxGeometry x="600" y="600" width="170" height="60" as="geometry" />
        </mxCell>
        <mxCell id="z0qUzcLH7huREnHgUQ8k-10" value="insert(isplate)" style="rounded=0;whiteSpace=wrap;html=1;" parent="1" vertex="1">
          <mxGeometry x="600" y="690" width="170" height="60" as="geometry" />
        </mxCell>
        <mxCell id="z0qUzcLH7huREnHgUQ8k-11" value="nalozi.status_naloga: &#39;SALJE SE&#39; -&amp;gt; &#39;PROKNJZENA&#39;" style="rounded=0;whiteSpace=wrap;html=1;" parent="1" vertex="1">
          <mxGeometry x="600" y="770" width="170" height="60" as="geometry" />
        </mxCell>
        <mxCell id="z0qUzcLH7huREnHgUQ8k-13" value="" style="endArrow=classic;html=1;rounded=0;exitX=0.5;exitY=1;exitDx=0;exitDy=0;entryX=0.5;entryY=0;entryDx=0;entryDy=0;" parent="1" source="z0qUzcLH7huREnHgUQ8k-2" target="z0qUzcLH7huREnHgUQ8k-4" edge="1">
          <mxGeometry width="50" height="50" relative="1" as="geometry">
            <mxPoint x="400" y="420" as="sourcePoint" />
            <mxPoint x="450" y="370" as="targetPoint" />
          </mxGeometry>
        </mxCell>
        <mxCell id="z0qUzcLH7huREnHgUQ8k-14" value="" style="endArrow=classic;html=1;rounded=0;exitX=0.5;exitY=1;exitDx=0;exitDy=0;entryX=0.5;entryY=0;entryDx=0;entryDy=0;" parent="1" source="z0qUzcLH7huREnHgUQ8k-4" target="z0qUzcLH7huREnHgUQ8k-5" edge="1">
          <mxGeometry width="50" height="50" relative="1" as="geometry">
            <mxPoint x="400" y="420" as="sourcePoint" />
            <mxPoint x="450" y="370" as="targetPoint" />
          </mxGeometry>
        </mxCell>
        <mxCell id="z0qUzcLH7huREnHgUQ8k-15" value="" style="endArrow=classic;html=1;rounded=0;exitX=0.5;exitY=1;exitDx=0;exitDy=0;entryX=0.5;entryY=0;entryDx=0;entryDy=0;" parent="1" source="z0qUzcLH7huREnHgUQ8k-5" target="z0qUzcLH7huREnHgUQ8k-6" edge="1">
          <mxGeometry width="50" height="50" relative="1" as="geometry">
            <mxPoint x="400" y="420" as="sourcePoint" />
            <mxPoint x="450" y="370" as="targetPoint" />
          </mxGeometry>
        </mxCell>
        <mxCell id="z0qUzcLH7huREnHgUQ8k-16" value="" style="endArrow=classic;html=1;rounded=0;exitX=0.5;exitY=1;exitDx=0;exitDy=0;entryX=0.5;entryY=0;entryDx=0;entryDy=0;" parent="1" source="z0qUzcLH7huREnHgUQ8k-6" target="z0qUzcLH7huREnHgUQ8k-7" edge="1">
          <mxGeometry width="50" height="50" relative="1" as="geometry">
            <mxPoint x="400" y="420" as="sourcePoint" />
            <mxPoint x="450" y="370" as="targetPoint" />
          </mxGeometry>
        </mxCell>
        <mxCell id="z0qUzcLH7huREnHgUQ8k-17" value="KRAJ" style="ellipse;whiteSpace=wrap;html=1;" parent="1" vertex="1">
          <mxGeometry x="365" y="850" width="120" height="80" as="geometry" />
        </mxCell>
        <mxCell id="z0qUzcLH7huREnHgUQ8k-18" value="" style="endArrow=classic;html=1;rounded=0;exitX=1;exitY=0.5;exitDx=0;exitDy=0;entryX=0.5;entryY=0;entryDx=0;entryDy=0;" parent="1" source="z0qUzcLH7huREnHgUQ8k-7" target="z0qUzcLH7huREnHgUQ8k-9" edge="1">
          <mxGeometry width="50" height="50" relative="1" as="geometry">
            <mxPoint x="400" y="750" as="sourcePoint" />
            <mxPoint x="450" y="700" as="targetPoint" />
          </mxGeometry>
        </mxCell>
        <mxCell id="z0qUzcLH7huREnHgUQ8k-19" value="" style="endArrow=classic;html=1;rounded=0;exitX=0.5;exitY=1;exitDx=0;exitDy=0;" parent="1" source="z0qUzcLH7huREnHgUQ8k-9" target="z0qUzcLH7huREnHgUQ8k-10" edge="1">
          <mxGeometry width="50" height="50" relative="1" as="geometry">
            <mxPoint x="400" y="750" as="sourcePoint" />
            <mxPoint x="450" y="700" as="targetPoint" />
          </mxGeometry>
        </mxCell>
        <mxCell id="z0qUzcLH7huREnHgUQ8k-20" value="" style="endArrow=classic;html=1;rounded=0;exitX=0.5;exitY=1;exitDx=0;exitDy=0;entryX=0.5;entryY=0;entryDx=0;entryDy=0;" parent="1" source="z0qUzcLH7huREnHgUQ8k-10" target="z0qUzcLH7huREnHgUQ8k-11" edge="1">
          <mxGeometry width="50" height="50" relative="1" as="geometry">
            <mxPoint x="400" y="750" as="sourcePoint" />
            <mxPoint x="450" y="700" as="targetPoint" />
          </mxGeometry>
        </mxCell>
        <mxCell id="z0qUzcLH7huREnHgUQ8k-21" value="" style="endArrow=classic;html=1;rounded=0;exitX=0.5;exitY=1;exitDx=0;exitDy=0;entryX=0.5;entryY=0;entryDx=0;entryDy=0;" parent="1" source="z0qUzcLH7huREnHgUQ8k-11" target="z0qUzcLH7huREnHgUQ8k-17" edge="1">
          <mxGeometry width="50" height="50" relative="1" as="geometry">
            <mxPoint x="400" y="750" as="sourcePoint" />
            <mxPoint x="450" y="700" as="targetPoint" />
          </mxGeometry>
        </mxCell>
        <mxCell id="z0qUzcLH7huREnHgUQ8k-22" value="" style="endArrow=classic;html=1;rounded=0;exitX=0;exitY=0.5;exitDx=0;exitDy=0;entryX=0.5;entryY=0;entryDx=0;entryDy=0;" parent="1" source="z0qUzcLH7huREnHgUQ8k-7" target="z0qUzcLH7huREnHgUQ8k-8" edge="1">
          <mxGeometry width="50" height="50" relative="1" as="geometry">
            <mxPoint x="400" y="750" as="sourcePoint" />
            <mxPoint x="450" y="700" as="targetPoint" />
          </mxGeometry>
        </mxCell>
        <mxCell id="z0qUzcLH7huREnHgUQ8k-23" value="" style="endArrow=classic;html=1;rounded=0;exitX=0.5;exitY=1;exitDx=0;exitDy=0;entryX=0.5;entryY=0;entryDx=0;entryDy=0;" parent="1" source="z0qUzcLH7huREnHgUQ8k-8" target="z0qUzcLH7huREnHgUQ8k-17" edge="1">
          <mxGeometry width="50" height="50" relative="1" as="geometry">
            <mxPoint x="400" y="750" as="sourcePoint" />
            <mxPoint x="450" y="700" as="targetPoint" />
          </mxGeometry>
        </mxCell>
      </root>
    </mxGraphModel>
  </diagram>
</mxfile>
